<svg version="1.1" xmlns="http://www.w3.org/2000/svg" 
    xmlns:xlink="http://www.w3.org/1999/xlink"
	       viewBox="0 0 1920 1200">
  <defs>
  <mask id="msk1">
   <rect fill="white" width="100%" height="100%"/>
  <path transform="scale(4) translate(10 35)"  d="M2,13A11,11 0 0 0 24,13A11,11 0 0 0 2,13
           M19.805,7.708
			c-0.334,0.446-0.667,0.892-1.022,1.365c0.403-0.106,0.822-0.216,1.24-0.326c0.019,0.023,0.036,0.047,0.055,0.07
			c-0.087,0.123-0.161,0.259-0.264,0.367c-0.331,0.353-0.784,0.642-0.98,1.056c-0.197,0.414-0.115,0.952-0.201,1.427
			c-0.103,0.558-0.215,1.12-0.392,1.658c-0.555,1.682-1.577,3.028-3.007,4.072c-0.75,0.549-1.583,0.949-2.468,1.178
			c-1.351,0.349-2.726,0.382-4.108,0.087c-0.786-0.167-1.515-0.448-2.216-0.823c-0.095-0.051-0.173-0.134-0.245-0.242
			c1.4-0.03,2.714-0.242,3.812-1.196c-1.171-0.268-2.009-0.871-2.437-2.066c0.319-0.03,0.593-0.056,0.868-0.082
			c-1.148-0.626-1.847-1.475-1.914-2.851c0.409,0.114,0.737,0.206,1.135,0.317c-0.312-0.437-0.594-0.764-0.801-1.133
			C6.407,9.781,6.45,8.941,6.788,8.107c0.08-0.197,0.199-0.271,0.386-0.058c0.839,0.958,1.839,1.723,3.03,2.167
			c0.796,0.297,1.65,0.439,2.483,0.63c0.042,0.01,0.17-0.164,0.187-0.265c0.077-0.449,0.081-0.915,0.198-1.351
			c0.218-0.806,0.782-1.369,1.526-1.683c1.085-0.458,2.146-0.341,3.084,0.407c0.294,0.233,0.562,0.205,0.866,0.086
  c0.378-0.148,0.756-0.295,1.135-0.443C19.723,7.635,19.764,7.672,19.805,7.708z"/>
  </mask>
  </defs> 
  </svg> 
